<svg width="500" height="500" viewBox="0 0 500 500" fill="none" xmlns="http://www.w3.org/2000/svg">
<rect width="500" height="500" rx="80" fill="url(#paint0_radial_15_2)"/>
<path d="M296.37 446.784L299.134 433.711H312.427L309.663 446.784H296.37ZM347.215 401.116C350.433 398.981 353.957 397.913 357.788 397.913C363.374 397.913 367.659 399.975 370.642 404.099C373.654 408.223 374.312 414.277 372.616 422.261C370.832 430.684 367.571 437.104 362.833 441.52C358.124 445.936 352.787 448.144 346.821 448.144C343.019 448.144 340.065 447.194 337.959 445.293C336.789 444.24 335.765 442.705 334.888 440.687L329.58 465.605H317.208L331.378 398.966H343.355L341.863 406.029C343.647 403.953 345.431 402.315 347.215 401.116ZM354.586 433.623C356.984 430.933 358.651 427.35 359.587 422.875C360.376 419.19 360.23 415.929 359.148 413.092C358.066 410.255 355.638 408.837 351.866 408.837C347.332 408.837 343.764 410.987 341.161 415.286C339.816 417.567 338.763 420.462 338.003 423.972C336.833 429.529 337.476 433.433 339.933 435.685C341.425 437.001 343.37 437.659 345.768 437.659C349.248 437.659 352.187 436.314 354.586 433.623ZM411.88 399.712C413.839 400.999 415.287 402.768 416.223 405.02L421.048 382.208H433.727L420.039 446.784H407.888L409.291 440.16C406.893 442.997 404.407 445.059 401.833 446.346C399.289 447.633 396.32 448.276 392.928 448.276C387.342 448.276 383.116 446.024 380.249 441.52C377.413 436.987 376.74 431.181 378.231 424.104C379.986 415.944 383.233 409.524 387.971 404.845C392.738 400.165 398.265 397.826 404.553 397.826C407.449 397.826 409.891 398.454 411.88 399.712ZM405.036 408.749C401.38 408.749 398.397 410.138 396.087 412.917C393.805 415.666 392.226 419.088 391.349 423.182C390.413 427.599 390.53 431.137 391.7 433.799C392.869 436.431 395.224 437.747 398.763 437.747C402.301 437.747 405.27 436.431 407.668 433.799C410.096 431.167 411.748 427.76 412.625 423.577C413.854 417.728 413.269 413.546 410.871 411.03C409.379 409.51 407.434 408.749 405.036 408.749ZM464.216 399.405L462.33 408.223H454.126L445.967 446.784H433.508L441.667 408.223H434.692L436.578 399.405H443.422L444.08 396.334C445.162 391.216 446.771 387.692 448.906 385.761C451.333 382.895 456.013 381.462 462.944 381.462C463.734 381.462 464.436 381.491 465.05 381.55C465.693 381.579 466.571 381.638 467.682 381.725L465.489 391.903C464.816 391.815 463.661 391.757 462.023 391.728C460.385 391.669 459.157 392.035 458.338 392.824C457.548 393.585 457.066 394.433 456.89 395.369C456.685 396.305 456.393 397.65 456.013 399.405H464.216Z" fill="white"/>
<path d="M214.587 334.9L218.49 316.438H237.262L233.359 334.9H214.587ZM286.39 270.407C290.933 267.392 295.91 265.885 301.321 265.885C309.209 265.885 315.26 268.796 319.473 274.62C323.727 280.443 324.656 288.993 322.26 300.268C319.741 312.163 315.136 321.229 308.445 327.465C301.796 333.702 294.258 336.82 285.832 336.82C280.463 336.82 276.292 335.478 273.318 332.793C271.666 331.306 270.22 329.138 268.981 326.288L261.485 361.477H244.015L264.025 267.371H280.938L278.832 277.346C281.351 274.413 283.871 272.1 286.39 270.407ZM296.798 316.314C300.185 312.514 302.539 307.455 303.861 301.135C304.976 295.931 304.769 291.326 303.241 287.32C301.713 283.314 298.285 281.311 292.957 281.311C286.555 281.311 281.516 284.346 277.841 290.418C275.941 293.639 274.454 297.728 273.38 302.684C271.728 310.532 272.637 316.045 276.106 319.226C278.212 321.084 280.959 322.013 284.346 322.013C289.26 322.013 293.411 320.114 296.798 316.314ZM377.708 268.425C380.475 270.242 382.52 272.741 383.841 275.921L390.656 243.706H408.56L389.231 334.9H372.07L374.053 325.545C370.666 329.551 367.155 332.463 363.521 334.28C359.928 336.097 355.735 337.006 350.944 337.006C343.056 337.006 337.088 333.826 333.04 327.465C329.034 321.063 328.084 312.865 330.19 302.87C332.668 291.347 337.253 282.281 343.944 275.673C350.676 269.065 358.482 265.761 367.362 265.761C371.451 265.761 374.899 266.649 377.708 268.425ZM368.043 281.187C362.881 281.187 358.668 283.149 355.405 287.072C352.183 290.955 349.953 295.787 348.714 301.569C347.393 307.806 347.558 312.803 349.21 316.562C350.862 320.279 354.187 322.137 359.184 322.137C364.182 322.137 368.374 320.279 371.76 316.562C375.188 312.844 377.522 308.033 378.761 302.127C380.496 293.866 379.67 287.96 376.283 284.408C374.177 282.261 371.43 281.187 368.043 281.187ZM451.617 267.991L448.953 280.443H437.368L425.845 334.9H408.25L419.774 280.443H409.923L412.587 267.991H422.252L423.181 263.654C424.709 256.426 426.981 251.45 429.996 248.724C433.424 244.676 440.032 242.652 449.821 242.652C450.936 242.652 451.927 242.694 452.794 242.776C453.703 242.818 454.942 242.9 456.511 243.024L453.414 257.397C452.464 257.273 450.832 257.191 448.52 257.149C446.207 257.067 444.472 257.583 443.316 258.698C442.2 259.772 441.519 260.97 441.271 262.291C440.982 263.613 440.569 265.513 440.032 267.991H451.617Z" fill="white"/>
<path d="M60.9384 418.581L62.9257 409.181H72.4836L70.4963 418.581H60.9384ZM97.4984 385.744C99.8116 384.208 102.346 383.441 105.101 383.441C109.117 383.441 112.198 384.923 114.343 387.889C116.509 390.854 116.982 395.207 115.763 400.948C114.48 407.004 112.135 411.62 108.728 414.796C105.342 417.971 101.504 419.559 97.2145 419.559C94.4806 419.559 92.3566 418.876 90.8425 417.509C90.0013 416.752 89.2653 415.648 88.6344 414.197L84.8175 432.114H75.922L86.1108 384.198H94.7224L93.6499 389.277C94.9327 387.783 96.2155 386.606 97.4984 385.744ZM102.798 409.118C104.522 407.183 105.721 404.607 106.394 401.39C106.962 398.74 106.857 396.395 106.078 394.355C105.3 392.315 103.555 391.295 100.842 391.295C97.5825 391.295 95.0169 392.841 93.1452 395.932C92.1779 397.573 91.4208 399.655 90.874 402.178C90.0328 406.174 90.4955 408.981 92.262 410.601C93.3345 411.547 94.733 412.02 96.4574 412.02C98.9599 412.02 101.073 411.053 102.798 409.118ZM143.995 384.734C145.404 385.659 146.445 386.932 147.118 388.551L150.588 372.148H159.704L149.862 418.581H141.124L142.134 413.818C140.409 415.858 138.622 417.341 136.771 418.266C134.942 419.191 132.807 419.654 130.368 419.654C126.351 419.654 123.312 418.035 121.251 414.796C119.211 411.536 118.728 407.362 119.8 402.273C121.062 396.406 123.396 391.79 126.803 388.425C130.231 385.06 134.206 383.378 138.727 383.378C140.809 383.378 142.565 383.83 143.995 384.734ZM139.074 391.232C136.445 391.232 134.3 392.231 132.639 394.229C130.999 396.206 129.863 398.666 129.232 401.61C128.559 404.786 128.643 407.33 129.484 409.244C130.326 411.137 132.018 412.083 134.563 412.083C137.108 412.083 139.242 411.137 140.967 409.244C142.712 407.351 143.9 404.902 144.531 401.894C145.414 397.688 144.994 394.681 143.269 392.873C142.197 391.779 140.798 391.232 139.074 391.232ZM181.627 384.513L180.271 390.854H174.372L168.505 418.581H159.546L165.414 390.854H160.398L161.754 384.513H166.675L167.148 382.305C167.927 378.625 169.083 376.091 170.618 374.703C172.364 372.642 175.729 371.612 180.713 371.612C181.28 371.612 181.785 371.633 182.227 371.675C182.689 371.696 183.32 371.738 184.119 371.801L182.542 379.119C182.058 379.056 181.228 379.014 180.05 378.993C178.872 378.951 177.989 379.214 177.4 379.782C176.833 380.328 176.486 380.938 176.359 381.611C176.212 382.284 176.002 383.252 175.729 384.513H181.627Z" fill="white"/>
<path d="M58.045 197.275L64.6697 165.939H96.5317L89.9069 197.275H58.045ZM179.919 87.8086C187.631 82.6911 196.078 80.1323 205.262 80.1323C218.651 80.1323 228.922 85.0746 236.072 94.9591C243.293 104.844 244.87 119.355 240.804 138.493C236.528 158.683 228.711 174.071 217.355 184.656C206.068 195.242 193.274 200.535 178.973 200.535C169.86 200.535 162.779 198.256 157.732 193.7C154.928 191.176 152.474 187.495 150.371 182.658L137.647 242.386H107.994L141.959 82.656H170.666L167.091 99.586C171.367 94.6086 175.643 90.6829 179.919 87.8086ZM197.585 165.728C203.334 159.279 207.33 150.691 209.573 139.965C211.466 131.132 211.115 123.316 208.522 116.516C205.928 109.716 200.109 106.316 191.066 106.316C180.2 106.316 171.647 111.468 165.408 121.774C162.183 127.242 159.66 134.182 157.837 142.594C155.033 155.914 156.575 165.273 162.464 170.671C166.039 173.825 170.701 175.403 176.449 175.403C184.792 175.403 191.837 172.178 197.585 165.728ZM334.918 84.4437C339.615 87.5282 343.085 91.7695 345.328 97.1674L356.895 42.4869H387.285L354.476 197.275H325.349L328.713 181.396C322.965 188.196 317.006 193.139 310.837 196.223C304.738 199.308 297.623 200.85 289.491 200.85C276.101 200.85 265.971 195.452 259.101 184.656C252.301 173.79 250.689 159.875 254.264 142.91C258.47 123.351 266.252 107.963 277.608 96.7468C289.035 85.5303 302.285 79.922 317.357 79.922C324.297 79.922 330.151 81.4292 334.918 84.4437ZM318.513 106.106C309.751 106.106 302.6 109.435 297.062 116.095C291.594 122.685 287.808 130.887 285.705 140.701C283.462 151.287 283.742 159.77 286.546 166.149C289.351 172.458 294.994 175.613 303.476 175.613C311.959 175.613 319.074 172.458 324.823 166.149C330.641 159.84 334.602 151.673 336.705 141.648C339.65 127.627 338.248 117.602 332.499 111.574C328.924 107.928 324.262 106.106 318.513 106.106ZM460.367 83.7076L455.846 104.844H436.182L416.623 197.275H386.759L406.318 104.844H389.598L394.12 83.7076H410.524L412.101 76.3467C414.695 64.0787 418.551 55.6312 423.668 51.0044C429.487 44.1343 440.703 40.6993 457.318 40.6993C459.211 40.6993 460.893 40.7694 462.365 40.9096C463.908 40.9797 466.011 41.1199 468.675 41.3302L463.417 65.7261C461.804 65.5158 459.035 65.3756 455.11 65.3055C451.184 65.1653 448.239 66.0416 446.277 67.9344C444.384 69.757 443.227 71.79 442.806 74.0333C442.316 76.2766 441.615 79.5014 440.703 83.7076H460.367Z" fill="white"/>
<defs>
<radialGradient id="paint0_radial_15_2" cx="0" cy="0" r="1" gradientUnits="userSpaceOnUse" gradientTransform="translate(250 250) rotate(90) scale(356.321)">
<stop stop-color="#5856D5"/>
<stop offset="1" stop-color="white"/>
</radialGradient>
</defs>
</svg>
