<svg version="1.1" xmlns="http://www.w3.org/2000/svg" xmlns:xlink="http://www.w3.org/1999/xlink" viewBox="0 0 23.0762 23.0762">
 <g>
  <rect height="23.0762" opacity="0" width="23.0762" x="0" y="0"/>
  <path d="M23.0762 11.5381C23.0762 17.9111 17.9111 23.0762 11.5381 23.0762C5.16504 23.0762 0 17.9111 0 11.5381C0 5.16504 5.16504 0 11.5381 0C17.9111 0 23.0762 5.16504 23.0762 11.5381ZM12.7441 5.87891C12.7441 5.21484 12.2012 4.67188 11.5381 4.67188C10.8848 4.67188 10.332 5.21484 10.332 5.87891V10.332H5.87891C5.21484 10.332 4.67188 10.8848 4.67188 11.5381C4.67188 12.2012 5.21484 12.7441 5.87891 12.7441H10.332V17.1973C10.332 17.8613 10.8848 18.4043 11.5381 18.4043C12.2012 18.4043 12.7441 17.8613 12.7441 17.1973V12.7441H17.1973C17.8613 12.7441 18.4043 12.2012 18.4043 11.5381C18.4043 10.8848 17.8613 10.332 17.1973 10.332H12.7441V5.87891Z" fill="currentColor" fill-opacity="0.85"/>
 </g>
</svg>
